<?xml version="1.0" encoding="utf-8"?>
<!-- Generator: Adobe Illustrator 27.5.0, SVG Export Plug-In . SVG Version: 6.00 Build 0)  -->
<svg version="1.1" id="Layer_1" xmlns="http://www.w3.org/2000/svg" xmlns:xlink="http://www.w3.org/1999/xlink" x="0px" y="0px"
	 viewBox="0 0 7000 4081" style="enable-background:new 0 0 7000 4081;" xml:space="preserve">
<g>
	<rect x="0" style="fill-rule:evenodd;clip-rule:evenodd;fill:#102770;" width="7000" height="4081"/>
	<g>
		<defs>
			<path id="SVGID_1_" d="M665.608,0h1088.22c2.323,19.22,3.52,38.759,3.52,58.563c0,283.612-245.182,513.523-547.631,513.523
				c-248.863,0-544.673-9.544-544.673,329.248c0,295.166,260.759,296.954,451.805,429.158
				c232.059,160.583,382.576,418.813,382.576,710.008c0,867.26-835.677,658.978-835.677,1144.598
				c0,317.804,285.283,328.499,549.668,328.499c302.448,0,547.631,229.911,547.631,513.524c0,18.195-1.009,36.169-2.979,53.878H0
				V2749.68V1331.321V0H665.608z"/>
		</defs>
		<clipPath id="SVGID_00000164511356933861422440000007447560474790949545_">
			<use xlink:href="#SVGID_1_"  style="overflow:visible;"/>
		</clipPath>
		
			<linearGradient id="SVGID_00000026854512327799362470000011770130293387126962_" gradientUnits="userSpaceOnUse" x1="-1391.0719" y1="1894.6301" x2="2245.9614" y2="2128.1812">
			<stop  offset="0" style="stop-color:#11BFAB"/>
			<stop  offset="0.5" style="stop-color:#121BD6"/>
			<stop  offset="1" style="stop-color:#D357F9"/>
		</linearGradient>
		
			<rect x="0" style="clip-path:url(#SVGID_00000164511356933861422440000007447560474790949545_);fill:url(#SVGID_00000026854512327799362470000011770130293387126962_);" width="1761.047" height="4081"/>
	</g>
	<g>
		<defs>
			<path id="SVGID_00000163033596464066294070000017272922086250755502_" d="M665.608,0h662.93
				c-68.969,233.679-277.191,403.489-523.364,403.489c-248.861,0-544.671-10.64-544.671,367.049
				c0,329.059,260.757,331.053,451.805,478.434c232.055,179.022,382.571,466.901,382.571,791.528
				c0,966.837-835.675,734.639-835.675,1276.019c0,354.293,285.283,366.215,549.668,366.215
				c244.334,0,451.258,167.289,521.773,398.266H0V2749.68V1331.321V0H665.608z"/>
		</defs>
		<clipPath id="SVGID_00000060008246265125988100000001091876939438093247_">
			<use xlink:href="#SVGID_00000163033596464066294070000017272922086250755502_"  style="overflow:visible;"/>
		</clipPath>
		
			<linearGradient id="SVGID_00000006706521711715245200000016716869203919034767_" gradientUnits="userSpaceOnUse" x1="4.7076" y1="2919.7678" x2="2320.6868" y2="-162.7613">
			<stop  offset="0" style="stop-color:#11BFAB"/>
			<stop  offset="0.5" style="stop-color:#4575E6"/>
			<stop  offset="1" style="stop-color:#D357F9"/>
		</linearGradient>
		
			<rect x="0" style="clip-path:url(#SVGID_00000060008246265125988100000001091876939438093247_);fill:url(#SVGID_00000006706521711715245200000016716869203919034767_);" width="1330.646" height="4081"/>
	</g>
	<g>
		<defs>
			<path id="SVGID_00000176033552072272075700000002155642910679364234_" d="M0,3214.359V2749.68V1331.321V878.302
				c78.743,167.708,267.406,196.775,414.678,317.954c232.057,190.947,382.573,497.996,382.573,844.244
				C797.251,2938.332,163.888,2866.821,0,3214.359 M976.716,4081H0v-478.868c86.518,182.23,305.218,189.976,511.242,189.976
				C707.793,3792.107,880.117,3907.59,976.716,4081z M665.608,0h310.5c-95.993,176.505-269.911,294.462-468.562,294.462
				c-195.75,0-420.507-6.966-507.545,186.08V0H665.608z"/>
		</defs>
		<clipPath id="SVGID_00000070103623255140087950000000265670401204847271_">
			<use xlink:href="#SVGID_00000176033552072272075700000002155642910679364234_"  style="overflow:visible;"/>
		</clipPath>
		
			<linearGradient id="SVGID_00000163039910622242690120000011254836114731062709_" gradientUnits="userSpaceOnUse" x1="122.3011" y1="2532.2593" x2="2733.8606" y2="-976.1003">
			<stop  offset="0" style="stop-color:#11BFAB"/>
			<stop  offset="0.5" style="stop-color:#4575E6"/>
			<stop  offset="1" style="stop-color:#D357F9"/>
		</linearGradient>
		
			<rect x="0" style="clip-path:url(#SVGID_00000070103623255140087950000000265670401204847271_);fill:url(#SVGID_00000163039910622242690120000011254836114731062709_);" width="976.716" height="4081"/>
	</g>
	<g>
		<defs>
			<path id="SVGID_00000140723127110128716640000003778048893673287607_" d="M6334.394,0H5246.176
				c-2.328,19.22-3.524,38.759-3.524,58.563c0,283.612,245.187,513.523,547.631,513.523c248.865,0,544.672-9.544,544.672,329.248
				c0,295.166-260.759,296.954-451.805,429.158c-232.055,160.583-382.572,418.813-382.572,710.008
				c0,867.26,835.675,658.978,835.675,1144.598c0,317.804-285.285,328.499-549.666,328.499
				c-302.449,0-547.635,229.911-547.635,513.524c0,18.195,1.009,36.169,2.979,53.878H7000V2749.68V1331.321V0H6334.394z"/>
		</defs>
		<clipPath id="SVGID_00000039126279741890794030000012427381354192360077_">
			<use xlink:href="#SVGID_00000140723127110128716640000003778048893673287607_"  style="overflow:visible;"/>
		</clipPath>
		
			<linearGradient id="SVGID_00000023273832243955862620000017180365887083187121_" gradientUnits="userSpaceOnUse" x1="8391.0762" y1="1894.6302" x2="4754.0425" y2="2128.1807">
			<stop  offset="0" style="stop-color:#11BFAB"/>
			<stop  offset="0.5" style="stop-color:#121BD6"/>
			<stop  offset="1" style="stop-color:#D357F9"/>
		</linearGradient>
		
			<rect x="5238.953" style="clip-path:url(#SVGID_00000039126279741890794030000012427381354192360077_);fill:url(#SVGID_00000023273832243955862620000017180365887083187121_);" width="1761.047" height="4081"/>
	</g>
	<g>
		<defs>
			<path id="SVGID_00000125585366808114967240000004735471718120842166_" d="M6334.394,0h-662.932
				c68.969,233.679,277.191,403.489,523.366,403.489c248.861,0,544.673-10.64,544.673,367.049
				c0,329.059-260.759,331.053-451.805,478.434c-232.059,179.022-382.575,466.901-382.575,791.528
				c0,966.837,835.674,734.639,835.674,1276.019c0,354.293-285.28,366.215-549.666,366.215
				c-244.332,0-451.26,167.289-521.775,398.266H7000V2749.68V1331.321V0H6334.394z"/>
		</defs>
		<clipPath id="SVGID_00000096061473386393344040000014295609742748051128_">
			<use xlink:href="#SVGID_00000125585366808114967240000004735471718120842166_"  style="overflow:visible;"/>
		</clipPath>
		
			<linearGradient id="SVGID_00000113340484823970406670000006325263282284522882_" gradientUnits="userSpaceOnUse" x1="6995.2949" y1="2919.7705" x2="4679.314" y2="-162.759">
			<stop  offset="0" style="stop-color:#11BFAB"/>
			<stop  offset="0.5" style="stop-color:#4575E6"/>
			<stop  offset="1" style="stop-color:#D357F9"/>
		</linearGradient>
		
			<rect x="5669.354" style="clip-path:url(#SVGID_00000096061473386393344040000014295609742748051128_);fill:url(#SVGID_00000113340484823970406670000006325263282284522882_);" width="1330.646" height="4081"/>
	</g>
	<g>
		<defs>
			<path id="SVGID_00000081646894510900304720000000085236598309822096_" d="M7000,3214.359V2749.68V1331.321V878.302
				c-78.739,167.708-267.404,196.775-414.673,317.954c-232.06,190.947-382.576,497.996-382.576,844.244
				C6202.751,2938.332,6836.112,2866.821,7000,3214.359 M6023.287,4081H7000v-478.868
				c-86.516,182.23-305.216,189.976-511.24,189.976C6292.208,3792.107,6119.886,3907.59,6023.287,4081z M6334.394,0h-310.501
				c95.997,176.505,269.916,294.462,468.566,294.462c195.746,0,420.504-6.966,507.541,186.08V0H6334.394z"/>
		</defs>
		<clipPath id="SVGID_00000020390244879670195560000006725704307601104306_">
			<use xlink:href="#SVGID_00000081646894510900304720000000085236598309822096_"  style="overflow:visible;"/>
		</clipPath>
		
			<linearGradient id="SVGID_00000119119809383282556010000001864439446803507074_" gradientUnits="userSpaceOnUse" x1="6877.7012" y1="2532.2603" x2="4266.1382" y2="-976.0993">
			<stop  offset="0" style="stop-color:#11BFAB"/>
			<stop  offset="0.5" style="stop-color:#4575E6"/>
			<stop  offset="1" style="stop-color:#D357F9"/>
		</linearGradient>
		
			<rect x="6023.287" style="clip-path:url(#SVGID_00000020390244879670195560000006725704307601104306_);fill:url(#SVGID_00000119119809383282556010000001864439446803507074_);" width="976.714" height="4081"/>
	</g>
</g>
</svg>
